<svg xmlns="http://www.w3.org/2000/svg" width="193.8" height="35" viewBox="0 0 193.8 35"><rect class="svg__rect" x="0" y="0" width="98.55" height="35" fill="#31AC5A"/><rect class="svg__rect" x="96.55" y="0" width="97.25000000000001" height="35" fill="#214C33"/><path class="svg__text" d="M17.33 22L14.22 22L14.22 13.47L17.14 13.47Q18.59 13.47 19.34 14.05Q20.10 14.63 20.10 15.78L20.10 15.78Q20.10 16.36 19.78 16.83Q19.47 17.30 18.86 17.56L18.86 17.56Q19.55 17.75 19.93 18.26Q20.31 18.78 20.31 19.51L20.31 19.51Q20.31 20.71 19.53 21.36Q18.76 22 17.33 22L17.33 22ZM15.70 18.15L15.70 20.82L17.35 20.82Q18.04 20.82 18.44 20.47Q18.83 20.13 18.83 19.51L18.83 19.51Q18.83 18.18 17.47 18.15L17.47 18.15L15.70 18.15ZM15.70 14.66L15.70 17.06L17.15 17.06Q17.84 17.06 18.23 16.75Q18.62 16.43 18.62 15.86L18.62 15.86Q18.62 15.23 18.26 14.95Q17.90 14.66 17.14 14.66L17.14 14.66L15.70 14.66ZM25.56 22L24.01 22L27.24 13.47L28.57 13.47L31.80 22L30.25 22L29.55 20.01L26.25 20.01L25.56 22ZM27.90 15.28L26.66 18.82L29.14 18.82L27.90 15.28ZM35.48 18.19L35.48 18.19L35.48 17.39Q35.48 16.19 35.91 15.27Q36.34 14.35 37.14 13.85Q37.94 13.35 38.98 13.35L38.98 13.35Q40.40 13.35 41.26 14.12Q42.12 14.89 42.26 16.29L42.26 16.29L40.78 16.29Q40.68 15.37 40.25 14.96Q39.82 14.55 38.98 14.55L38.98 14.55Q38.02 14.55 37.50 15.26Q36.98 15.96 36.97 17.33L36.97 17.33L36.97 18.09Q36.97 19.47 37.46 20.20Q37.96 20.92 38.91 20.92L38.91 20.92Q39.79 20.92 40.23 20.53Q40.67 20.14 40.78 19.22L40.78 19.22L42.26 19.22Q42.13 20.59 41.25 21.35Q40.37 22.12 38.91 22.12L38.91 22.12Q37.89 22.12 37.12 21.63Q36.34 21.15 35.92 20.26Q35.50 19.37 35.48 18.19ZM48.06 22L46.57 22L46.57 13.47L48.06 13.47L48.06 17.47L48.88 16.46L51.37 13.47L53.16 13.47L49.99 17.25L53.35 22L51.59 22L49.02 18.31L48.06 19.34L48.06 22ZM62.70 22L57.13 22L57.13 13.47L62.66 13.47L62.66 14.66L58.61 14.66L58.61 17.02L62.11 17.02L62.11 18.19L58.61 18.19L58.61 20.82L62.70 20.82L62.70 22ZM68.38 22L66.90 22L66.90 13.47L68.38 13.47L72.20 19.54L72.20 13.47L73.67 13.47L73.67 22L72.18 22L68.38 15.95L68.38 22ZM80.86 22L78.41 22L78.41 13.47L80.93 13.47Q82.06 13.47 82.93 13.97Q83.81 14.48 84.29 15.40Q84.77 16.33 84.77 17.52L84.77 17.52L84.77 17.95Q84.77 19.16 84.29 20.08Q83.80 21.00 82.91 21.50Q82.02 22 80.86 22L80.86 22ZM79.89 14.66L79.89 20.82L80.86 20.82Q82.02 20.82 82.65 20.09Q83.27 19.36 83.28 17.99L83.28 17.99L83.28 17.52Q83.28 16.13 82.68 15.40Q82.07 14.66 80.93 14.66L80.93 14.66L79.89 14.66Z" fill="#FFFFFF"/><path class="svg__text" d="M114.71 22L110.74 22L110.74 13.60L114.71 13.60Q116.09 13.60 117.16 14.12Q118.23 14.63 118.82 15.58Q119.40 16.53 119.40 17.80L119.40 17.80Q119.40 19.07 118.82 20.02Q118.23 20.97 117.16 21.48Q116.09 22 114.71 22L114.71 22ZM113.12 15.50L113.12 20.10L114.62 20.10Q115.69 20.10 116.35 19.49Q117.00 18.88 117.00 17.80L117.00 17.80Q117.00 16.72 116.35 16.11Q115.69 15.50 114.62 15.50L114.62 15.50L113.12 15.50ZM123.05 20.93L123.05 20.93L124.35 19.40Q125.02 20.27 125.79 20.27L125.79 20.27Q125.80 20.27 125.80 20.27L125.80 20.27Q126.32 20.27 126.59 19.96Q126.86 19.65 126.86 19.05L126.86 19.05L126.86 15.44L123.96 15.44L123.96 13.60L129.21 13.60L129.21 18.91Q129.21 20.54 128.39 21.36Q127.57 22.17 125.97 22.17L125.97 22.17Q125.05 22.17 124.29 21.85Q123.53 21.53 123.05 20.93ZM135.72 22L133.29 22L137.00 13.60L139.34 13.60L143.06 22L140.59 22L139.93 20.37L136.38 20.37L135.72 22ZM138.15 15.93L137.07 18.61L139.23 18.61L138.15 15.93ZM149.54 22L147.21 22L147.21 13.60L149.17 13.60L152.88 18.07L152.88 13.60L155.20 13.60L155.20 22L153.25 22L149.54 17.52L149.54 22ZM159.94 17.80L159.94 17.80Q159.94 16.54 160.54 15.54Q161.13 14.55 162.20 13.99Q163.27 13.43 164.61 13.43L164.61 13.43Q165.79 13.43 166.73 13.83Q167.67 14.22 168.29 14.97L168.29 14.97L166.78 16.33Q165.93 15.40 164.76 15.40L164.76 15.40Q164.74 15.40 164.74 15.40L164.74 15.40Q163.66 15.40 163.00 16.06Q162.34 16.71 162.34 17.80L162.34 17.80Q162.34 18.50 162.64 19.04Q162.94 19.59 163.48 19.89Q164.02 20.20 164.71 20.20L164.71 20.20Q165.40 20.20 166.00 19.93L166.00 19.93L166.00 17.62L168.10 17.62L168.10 21.10Q167.37 21.61 166.44 21.89Q165.51 22.17 164.57 22.17L164.57 22.17Q163.25 22.17 162.19 21.61Q161.13 21.05 160.54 20.05Q159.94 19.06 159.94 17.80ZM172.66 17.80L172.66 17.80Q172.66 16.55 173.26 15.55Q173.87 14.56 174.93 14.00Q175.99 13.43 177.32 13.43L177.32 13.43Q178.65 13.43 179.72 14.00Q180.78 14.56 181.39 15.55Q181.99 16.55 181.99 17.80L181.99 17.80Q181.99 19.05 181.39 20.04Q180.78 21.04 179.72 21.60Q178.66 22.17 177.32 22.17L177.32 22.17Q175.99 22.17 174.93 21.60Q173.87 21.04 173.26 20.04Q172.66 19.05 172.66 17.80ZM175.06 17.80L175.06 17.80Q175.06 18.51 175.36 19.05Q175.66 19.60 176.18 19.90Q176.69 20.20 177.32 20.20L177.32 20.20Q177.96 20.20 178.48 19.90Q178.99 19.60 179.29 19.05Q179.59 18.51 179.59 17.80L179.59 17.80Q179.59 17.09 179.29 16.54Q178.99 16 178.48 15.70Q177.96 15.40 177.32 15.40L177.32 15.40Q176.69 15.40 176.17 15.70Q175.66 16 175.36 16.54Q175.06 17.09 175.06 17.80Z" fill="#FFFFFF" x="109.55"/></svg>