<svg xmlns="http://www.w3.org/2000/svg" width="247.9" height="35" viewBox="0 0 247.9 35"><rect class="svg__rect" x="0" y="0" width="107.68" height="35" fill="#C38F00"/><rect class="svg__rect" x="105.68" y="0" width="142.22" height="35" fill="#FEBE10"/><path class="svg__text" d="M16.67 22L14.22 22L14.22 13.47L16.74 13.47Q17.87 13.47 18.74 13.97Q19.62 14.48 20.10 15.40Q20.58 16.33 20.58 17.52L20.58 17.52L20.58 17.95Q20.58 19.16 20.10 20.08Q19.61 21.00 18.72 21.50Q17.83 22 16.67 22L16.67 22ZM15.70 14.66L15.70 20.82L16.67 20.82Q17.83 20.82 18.46 20.09Q19.08 19.36 19.09 17.99L19.09 17.99L19.09 17.52Q19.09 16.13 18.49 15.40Q17.89 14.66 16.74 14.66L16.74 14.66L15.70 14.66ZM25.82 22L24.28 22L27.51 13.47L28.84 13.47L32.06 22L30.52 22L29.82 20.01L26.52 20.01L25.82 22ZM28.17 15.28L26.93 18.82L29.40 18.82L28.17 15.28ZM37.70 14.66L35.06 14.66L35.06 13.47L41.83 13.47L41.83 14.66L39.17 14.66L39.17 22L37.70 22L37.70 14.66ZM46.37 22L44.83 22L48.05 13.47L49.38 13.47L52.61 22L51.06 22L50.36 20.01L47.06 20.01L46.37 22ZM48.71 15.28L47.48 18.82L49.95 18.82L48.71 15.28ZM59.67 22L56.56 22L56.56 13.47L59.49 13.47Q60.93 13.47 61.69 14.05Q62.45 14.63 62.45 15.78L62.45 15.78Q62.45 16.36 62.13 16.83Q61.81 17.30 61.20 17.56L61.20 17.56Q61.89 17.75 62.27 18.26Q62.65 18.78 62.65 19.51L62.65 19.51Q62.65 20.71 61.88 21.36Q61.11 22 59.67 22L59.67 22ZM58.05 18.15L58.05 20.82L59.69 20.82Q60.39 20.82 60.78 20.47Q61.17 20.13 61.17 19.51L61.17 19.51Q61.17 18.18 59.81 18.15L59.81 18.15L58.05 18.15ZM58.05 14.66L58.05 17.06L59.50 17.06Q60.19 17.06 60.58 16.75Q60.97 16.43 60.97 15.86L60.97 15.86Q60.97 15.23 60.61 14.95Q60.25 14.66 59.49 14.66L59.49 14.66L58.05 14.66ZM67.90 22L66.36 22L69.58 13.47L70.91 13.47L74.14 22L72.59 22L71.90 20.01L68.59 20.01L67.90 22ZM70.24 15.28L69.01 18.82L71.48 18.82L70.24 15.28ZM77.66 19.42L77.66 19.42L79.14 19.42Q79.14 20.15 79.63 20.55Q80.11 20.95 81.00 20.95L81.00 20.95Q81.78 20.95 82.17 20.63Q82.56 20.32 82.56 19.80L82.56 19.80Q82.56 19.24 82.16 18.94Q81.76 18.63 80.73 18.32Q79.70 18.01 79.09 17.63L79.09 17.63Q77.93 16.90 77.93 15.72L77.93 15.72Q77.93 14.69 78.77 14.02Q79.61 13.35 80.95 13.35L80.95 13.35Q81.84 13.35 82.54 13.68Q83.23 14.01 83.63 14.61Q84.03 15.22 84.03 15.96L84.03 15.96L82.56 15.96Q82.56 15.29 82.14 14.91Q81.72 14.54 80.94 14.54L80.94 14.54Q80.21 14.54 79.81 14.85Q79.41 15.16 79.41 15.71L79.41 15.71Q79.41 16.18 79.84 16.50Q80.28 16.81 81.27 17.10Q82.27 17.40 82.87 17.78Q83.47 18.16 83.76 18.65Q84.04 19.13 84.04 19.79L84.04 19.79Q84.04 20.86 83.22 21.49Q82.40 22.12 81.00 22.12L81.00 22.12Q80.08 22.12 79.30 21.77Q78.52 21.43 78.09 20.83Q77.66 20.22 77.66 19.42ZM93.90 22L88.33 22L88.33 13.47L93.86 13.47L93.86 14.66L89.81 14.66L89.81 17.02L93.31 17.02L93.31 18.19L89.81 18.19L89.81 20.82L93.90 20.82L93.90 22Z" fill="#FFFFFF"/><path class="svg__text" d="M122.25 22L119.87 22L119.87 13.60L123.71 13.60Q124.85 13.60 125.69 13.98Q126.53 14.35 126.99 15.06Q127.44 15.76 127.44 16.71L127.44 16.71Q127.44 17.66 126.99 18.35Q126.53 19.05 125.69 19.42Q124.85 19.80 123.71 19.80L123.71 19.80L122.25 19.80L122.25 22ZM122.25 15.47L122.25 17.93L123.57 17.93Q124.30 17.93 124.67 17.61Q125.04 17.29 125.04 16.71L125.04 16.71Q125.04 16.12 124.67 15.80Q124.30 15.47 123.57 15.47L123.57 15.47L122.25 15.47ZM131.77 17.80L131.77 17.80Q131.77 16.55 132.37 15.55Q132.98 14.56 134.04 14.00Q135.10 13.43 136.43 13.43L136.43 13.43Q137.76 13.43 138.83 14.00Q139.89 14.56 140.50 15.55Q141.10 16.55 141.10 17.80L141.10 17.80Q141.10 19.05 140.50 20.04Q139.89 21.04 138.83 21.60Q137.77 22.17 136.43 22.17L136.43 22.17Q135.10 22.17 134.04 21.60Q132.98 21.04 132.37 20.04Q131.77 19.05 131.77 17.80ZM134.16 17.80L134.16 17.80Q134.16 18.51 134.47 19.05Q134.77 19.60 135.28 19.90Q135.80 20.20 136.43 20.20L136.43 20.20Q137.07 20.20 137.59 19.90Q138.10 19.60 138.40 19.05Q138.70 18.51 138.70 17.80L138.70 17.80Q138.70 17.09 138.40 16.54Q138.10 16 137.59 15.70Q137.07 15.40 136.43 15.40L136.43 15.40Q135.79 15.40 135.28 15.70Q134.77 16 134.47 16.54Q134.16 17.09 134.16 17.80ZM145.24 21.24L145.24 21.24L146.02 19.49Q146.59 19.86 147.33 20.09Q148.07 20.32 148.80 20.32L148.80 20.32Q150.16 20.32 150.17 19.64L150.17 19.64Q150.17 19.28 149.78 19.11Q149.39 18.93 148.52 18.74L148.52 18.74Q147.57 18.53 146.94 18.30Q146.30 18.06 145.85 17.55Q145.39 17.03 145.39 16.16L145.39 16.16Q145.39 15.39 145.81 14.77Q146.23 14.15 147.06 13.79Q147.90 13.43 149.11 13.43L149.11 13.43Q149.93 13.43 150.74 13.62Q151.54 13.80 152.16 14.17L152.16 14.17L151.43 15.93Q150.23 15.28 149.09 15.28L149.09 15.28Q148.39 15.28 148.06 15.49Q147.74 15.70 147.74 16.04L147.74 16.04Q147.74 16.37 148.12 16.54Q148.51 16.71 149.36 16.89L149.36 16.89Q150.32 17.10 150.95 17.33Q151.58 17.56 152.04 18.07Q152.50 18.58 152.50 19.46L152.50 19.46Q152.50 20.21 152.09 20.83Q151.67 21.44 150.83 21.80Q149.99 22.17 148.78 22.17L148.78 22.17Q147.76 22.17 146.80 21.92Q145.84 21.67 145.24 21.24ZM158.87 15.48L156.29 15.48L156.29 13.60L163.81 13.60L163.81 15.48L161.25 15.48L161.25 22L158.87 22L158.87 15.48ZM167.76 17.80L167.76 17.80Q167.76 16.54 168.35 15.54Q168.95 14.55 170.02 13.99Q171.09 13.43 172.43 13.43L172.43 13.43Q173.61 13.43 174.55 13.83Q175.49 14.22 176.11 14.97L176.11 14.97L174.59 16.33Q173.75 15.40 172.57 15.40L172.57 15.40Q172.56 15.40 172.56 15.40L172.56 15.40Q171.48 15.40 170.82 16.06Q170.15 16.71 170.15 17.80L170.15 17.80Q170.15 18.50 170.45 19.04Q170.76 19.59 171.30 19.89Q171.83 20.20 172.53 20.20L172.53 20.20Q173.22 20.20 173.82 19.93L173.82 19.93L173.82 17.62L175.91 17.62L175.91 21.10Q175.19 21.61 174.26 21.89Q173.32 22.17 172.39 22.17L172.39 22.17Q171.07 22.17 170.01 21.61Q168.95 21.05 168.35 20.05Q167.76 19.06 167.76 17.80ZM183.28 22L180.91 22L180.91 13.60L184.75 13.60Q185.89 13.60 186.73 13.98Q187.57 14.35 188.02 15.06Q188.48 15.76 188.48 16.71L188.48 16.71Q188.48 17.62 188.05 18.30Q187.63 18.98 186.83 19.36L186.83 19.36L188.65 22L186.10 22L184.58 19.77L183.28 19.77L183.28 22ZM183.28 15.47L183.28 17.93L184.60 17.93Q185.33 17.93 185.71 17.61Q186.08 17.29 186.08 16.71L186.08 16.71Q186.08 16.12 185.71 15.79Q185.33 15.47 184.60 15.47L184.60 15.47L183.28 15.47ZM200.01 22L193.27 22L193.27 13.60L199.86 13.60L199.86 15.44L195.62 15.44L195.62 16.85L199.36 16.85L199.36 18.63L195.62 18.63L195.62 20.17L200.01 20.17L200.01 22ZM204.23 21.24L204.23 21.24L205.01 19.49Q205.57 19.86 206.32 20.09Q207.06 20.32 207.78 20.32L207.78 20.32Q209.15 20.32 209.15 19.64L209.15 19.64Q209.15 19.28 208.76 19.11Q208.37 18.93 207.51 18.74L207.51 18.74Q206.56 18.53 205.92 18.30Q205.29 18.06 204.83 17.55Q204.38 17.03 204.38 16.16L204.38 16.16Q204.38 15.39 204.80 14.77Q205.22 14.15 206.05 13.79Q206.89 13.43 208.09 13.43L208.09 13.43Q208.92 13.43 209.72 13.62Q210.53 13.80 211.15 14.17L211.15 14.17L210.41 15.93Q209.21 15.28 208.08 15.28L208.08 15.28Q207.37 15.28 207.05 15.49Q206.73 15.70 206.73 16.04L206.73 16.04Q206.73 16.37 207.11 16.54Q207.49 16.71 208.34 16.89L208.34 16.89Q209.31 17.10 209.94 17.33Q210.57 17.56 211.03 18.07Q211.49 18.58 211.49 19.46L211.49 19.46Q211.49 20.21 211.07 20.83Q210.65 21.44 209.81 21.80Q208.97 22.17 207.77 22.17L207.77 22.17Q206.75 22.17 205.79 21.92Q204.83 21.67 204.23 21.24ZM215.64 17.80L215.64 17.80Q215.64 16.55 216.24 15.55Q216.85 14.56 217.91 14.00Q218.97 13.43 220.30 13.43L220.30 13.43Q221.63 13.43 222.70 14.00Q223.76 14.56 224.37 15.55Q224.97 16.55 224.97 17.80L224.97 17.80Q224.97 19.22 224.20 20.30Q223.43 21.39 222.12 21.85L222.12 21.85Q222.36 22.12 222.59 22.23Q222.82 22.33 223.10 22.33L223.10 22.33Q223.81 22.33 224.38 21.75L224.38 21.75L225.41 22.97Q224.99 23.49 224.38 23.76Q223.77 24.03 223.05 24.03L223.05 24.03Q222.35 24.03 221.79 23.85Q221.23 23.67 220.66 23.25Q220.09 22.84 219.38 22.09L219.38 22.09Q218.29 21.91 217.44 21.31Q216.58 20.72 216.11 19.81Q215.64 18.89 215.64 17.80ZM218.04 17.80L218.04 17.80Q218.04 18.51 218.34 19.05Q218.64 19.60 219.16 19.90Q219.67 20.20 220.30 20.20L220.30 20.20Q220.94 20.20 221.46 19.90Q221.97 19.60 222.27 19.05Q222.57 18.51 222.57 17.80L222.57 17.80Q222.57 17.09 222.27 16.54Q221.97 16 221.46 15.70Q220.94 15.40 220.30 15.40L220.30 15.40Q219.66 15.40 219.15 15.70Q218.64 16 218.34 16.54Q218.04 17.09 218.04 17.80ZM236.09 22L229.70 22L229.70 13.60L232.08 13.60L232.08 20.11L236.09 20.11L236.09 22Z" fill="#FFFFFF" x="118.68"/></svg>