<svg xmlns="http://www.w3.org/2000/svg" width="209.16" height="35" viewBox="0 0 209.16 35"><rect class="svg__rect" x="0" y="0" width="108.05" height="35" fill="#006DB6"/><rect class="svg__rect" x="106.05" y="0" width="103.11" height="35" fill="#28A9FF"/><path class="svg__text" d="M15.70 22L14.22 22L14.22 13.47L19.64 13.47L19.64 14.66L15.70 14.66L15.70 17.20L19.13 17.20L19.13 18.38L15.70 18.38L15.70 22ZM25.28 22L23.80 22L23.80 13.47L26.80 13.47Q28.27 13.47 29.08 14.13Q29.88 14.79 29.88 16.05L29.88 16.05Q29.88 16.90 29.47 17.48Q29.05 18.06 28.31 18.37L28.31 18.37L30.23 21.92L30.23 22L28.64 22L26.93 18.71L25.28 18.71L25.28 22ZM25.28 14.66L25.28 17.52L26.80 17.52Q27.55 17.52 27.98 17.15Q28.40 16.77 28.40 16.11L28.40 16.11Q28.40 15.43 28.01 15.05Q27.62 14.68 26.84 14.66L26.84 14.66L25.28 14.66ZM34.00 18.00L34.00 18.00L34.00 17.52Q34.00 16.28 34.45 15.32Q34.89 14.37 35.69 13.86Q36.50 13.35 37.54 13.35Q38.59 13.35 39.39 13.85Q40.20 14.35 40.64 15.29Q41.08 16.23 41.08 17.48L41.08 17.48L41.08 17.96Q41.08 19.21 40.65 20.16Q40.22 21.10 39.41 21.61Q38.60 22.12 37.56 22.12L37.56 22.12Q36.52 22.12 35.71 21.61Q34.89 21.10 34.45 20.17Q34.01 19.23 34.00 18.00ZM35.49 17.46L35.49 17.96Q35.49 19.36 36.03 20.13Q36.58 20.90 37.56 20.90L37.56 20.90Q38.54 20.90 39.07 20.15Q39.60 19.40 39.60 17.96L39.60 17.96L39.60 17.51Q39.60 16.09 39.06 15.34Q38.53 14.58 37.54 14.58L37.54 14.58Q36.58 14.58 36.04 15.33Q35.50 16.09 35.49 17.46L35.49 17.46ZM47.03 22L45.55 22L45.55 13.47L47.03 13.47L50.84 19.54L50.84 13.47L52.31 13.47L52.31 22L50.83 22L47.03 15.95L47.03 22ZM58.74 14.66L56.10 14.66L56.10 13.47L62.87 13.47L62.87 14.66L60.21 14.66L60.21 22L58.74 22L58.74 14.66ZM72.20 22L66.62 22L66.62 13.47L72.16 13.47L72.16 14.66L68.11 14.66L68.11 17.02L71.61 17.02L71.61 18.19L68.11 18.19L68.11 20.82L72.20 20.82L72.20 22ZM77.88 22L76.40 22L76.40 13.47L77.88 13.47L81.69 19.54L81.69 13.47L83.16 13.47L83.16 22L81.68 22L77.88 15.95L77.88 22ZM90.36 22L87.90 22L87.90 13.47L90.42 13.47Q91.56 13.47 92.43 13.97Q93.31 14.48 93.79 15.40Q94.27 16.33 94.27 17.52L94.27 17.52L94.27 17.95Q94.27 19.16 93.78 20.08Q93.30 21.00 92.41 21.50Q91.51 22 90.36 22L90.36 22ZM89.39 14.66L89.39 20.82L90.35 20.82Q91.52 20.82 92.14 20.09Q92.77 19.36 92.78 17.99L92.78 17.99L92.78 17.52Q92.78 16.13 92.18 15.40Q91.57 14.66 90.42 14.66L90.42 14.66L89.39 14.66Z" fill="#FFFFFF"/><path class="svg__text" d="M122.62 22L120.24 22L120.24 13.60L124.08 13.60Q125.22 13.60 126.06 13.98Q126.90 14.35 127.36 15.06Q127.81 15.76 127.81 16.71L127.81 16.71Q127.81 17.62 127.39 18.30Q126.96 18.98 126.17 19.36L126.17 19.36L127.98 22L125.44 22L123.91 19.77L122.62 19.77L122.62 22ZM122.62 15.47L122.62 17.93L123.94 17.93Q124.67 17.93 125.04 17.61Q125.41 17.29 125.41 16.71L125.41 16.71Q125.41 16.12 125.04 15.79Q124.67 15.47 123.94 15.47L123.94 15.47L122.62 15.47ZM139.35 22L132.60 22L132.60 13.60L139.19 13.60L139.19 15.44L134.96 15.44L134.96 16.85L138.69 16.85L138.69 18.63L134.96 18.63L134.96 20.17L139.35 20.17L139.35 22ZM145.57 22L143.14 22L146.85 13.60L149.19 13.60L152.91 22L150.44 22L149.78 20.37L146.23 20.37L145.57 22ZM148.01 15.93L146.92 18.61L149.08 18.61L148.01 15.93ZM156.64 17.80L156.64 17.80Q156.64 16.54 157.23 15.54Q157.83 14.55 158.88 13.99Q159.94 13.43 161.25 13.43L161.25 13.43Q162.41 13.43 163.33 13.84Q164.25 14.25 164.87 15.02L164.87 15.02L163.36 16.39Q162.54 15.40 161.38 15.40L161.38 15.40Q160.69 15.40 160.16 15.70Q159.62 16 159.33 16.54Q159.03 17.09 159.03 17.80L159.03 17.80Q159.03 18.51 159.33 19.05Q159.62 19.60 160.16 19.90Q160.69 20.20 161.38 20.20L161.38 20.20Q162.54 20.20 163.36 19.22L163.36 19.22L164.87 20.58Q164.26 21.35 163.33 21.76Q162.41 22.17 161.25 22.17L161.25 22.17Q159.94 22.17 158.88 21.61Q157.83 21.05 157.23 20.05Q156.64 19.06 156.64 17.80ZM171.20 15.48L168.61 15.48L168.61 13.60L176.14 13.60L176.14 15.48L173.57 15.48L173.57 22L171.20 22L171.20 15.48ZM179.43 20.93L179.43 20.93L180.72 19.40Q181.39 20.27 182.17 20.27L182.17 20.27Q182.17 20.27 182.18 20.27L182.18 20.27Q182.69 20.27 182.96 19.96Q183.23 19.65 183.23 19.05L183.23 19.05L183.23 15.44L180.33 15.44L180.33 13.60L185.59 13.60L185.59 18.91Q185.59 20.54 184.76 21.36Q183.94 22.17 182.35 22.17L182.35 22.17Q181.42 22.17 180.67 21.85Q179.91 21.53 179.43 20.93ZM190.09 21.24L190.09 21.24L190.87 19.49Q191.43 19.86 192.17 20.09Q192.92 20.32 193.64 20.32L193.64 20.32Q195.00 20.32 195.01 19.64L195.01 19.64Q195.01 19.28 194.62 19.11Q194.23 18.93 193.36 18.74L193.36 18.74Q192.41 18.53 191.78 18.30Q191.14 18.06 190.69 17.55Q190.23 17.03 190.23 16.16L190.23 16.16Q190.23 15.39 190.65 14.77Q191.07 14.15 191.91 13.79Q192.74 13.43 193.95 13.43L193.95 13.43Q194.78 13.43 195.58 13.62Q196.39 13.80 197.00 14.17L197.00 14.17L196.27 15.93Q195.07 15.28 193.94 15.28L193.94 15.28Q193.23 15.28 192.91 15.49Q192.58 15.70 192.58 16.04L192.58 16.04Q192.58 16.37 192.97 16.54Q193.35 16.71 194.20 16.89L194.20 16.89Q195.16 17.10 195.79 17.33Q196.42 17.56 196.88 18.07Q197.35 18.58 197.35 19.46L197.35 19.46Q197.35 20.21 196.93 20.83Q196.51 21.44 195.67 21.80Q194.83 22.17 193.63 22.17L193.63 22.17Q192.61 22.17 191.65 21.92Q190.69 21.67 190.09 21.24Z" fill="#FFFFFF" x="119.05"/></svg>